<svg xmlns="http://www.w3.org/2000/svg" viewBox="0 0 32 32" width="32" height="32">
  <rect width="32" height="32" rx="7" fill="#030213"/>
  <g transform="translate(6 7)" fill="none" stroke="#ffffff" stroke-width="1.7" stroke-linecap="round" stroke-linejoin="round">
    <path d="M2 11l1.2-3.5A2 2 0 0 1 5.1 6h9.8a2 2 0 0 1 1.9 1.5L18 11"/>
    <path d="M2 11h16v3a1 1 0 0 1-1 1h-1a1 1 0 0 1-1-1v-1H5v1a1 1 0 0 1-1 1H3a1 1 0 0 1-1-1z"/>
    <circle cx="5.5" cy="11.5" r="0.6" fill="#fff"/>
    <circle cx="14.5" cy="11.5" r="0.6" fill="#fff"/>
  </g>
</svg>
